# xmcd CD database file
#
# Track frame offsets:
#	150
#	18322
#	34952
#	53125
#
# Disc length: 927 seconds
#
# Revision: 0
# Processed by: cddbd v1.5.1PL0 Copyright (c) Steve Scherf et al.
# Submitted via: CDex 1.51
#
DISCID=2b039d04
DTITLE=COLOR - One and Only
DYEAR=2000
DGENRE=JPop
TTITLE0=One and Only
TTITLE1=Leave Me In LOVE
TTITLE2=One and Only(Instrumental)
TTITLE3=Leave Me In LOVE(Instrumenal)
EXTD=YEAR: 2000
EXTT0=
EXTT1=
EXTT2=
EXTT3=
PLAYORDER=
